# xmcd CD database file
#
# Track frame offsets:
#	150
#	12218
#	24568
#	37292
#	47870
#	58880
#	72276
#	83646
#	96845
#	107107
#	120645
#	131830
#	145458
#	159069
#	173250
#	186829
#	198954
#	212370
#	222473
#	236729
#
# Disc length: 3345 seconds
#
# Revision: 0
# Processed by: cddbd v1.5.1PL0 Copyright (c) Steve Scherf et al.
# Submitted via: CDex 1.40Beta8
#
DISCID=1e0d0f14
DTITLE=Various Artist - The best of blues classics
DYEAR=2003
DGENRE=Blues
TTITLE0=It comes in like a lion (julia lee and her boy friends)
TTITLE1=OO-oo-wee (Smokey Hogg)
TTITLE2=After midnite (Amos Milburn)
TTITLE3=I'm gonna get married (Walter Brown)
TTITLE4=Blues at Sundown (Amos Milburn)
TTITLE5=Don't come too soon (Julia Lee and Her Boy Friends)
TTITLE6=This joint'S too hip for me (Betty Hall Jones)
TTITLE7=She's going to ruin me (T-Bone Walker)
TTITLE8=Gotta good reason for being bad (Bis Moten and His Men)
TTITLE9=Walkin' and talkin' blues (Floyd Dixon)
TTITLE10=My baby's boogying (Amos Milburn)
TTITLE11=He's a real gone guy (Nellie Lutcher)
TTITLE12=Empty stocking blues (Floyd Dixon)
TTITLE13=Sweet Lorraine (King Cole Trio)
TTITLE14=My baby done left me (Jesse Price)
TTITLE15=Cryin' the blues (Laura Rucker)
TTITLE16=On the sunny side of the street (Jay McShann's Kansas City Stompers)
TTITLE17=Wind blues (Floyd Dixon)
TTITLE18=Easy listening blues (King Cole Trio)
TTITLE19=Best friend blues (Bis Moten and His Men)
EXTD=YEAR: 2003 ID3G: 0
EXTT0=
EXTT1=
EXTT2=
EXTT3=
EXTT4=
EXTT5=
EXTT6=
EXTT7=
EXTT8=
EXTT9=
EXTT10=
EXTT11=
EXTT12=
EXTT13=
EXTT14=
EXTT15=
EXTT16=
EXTT17=
EXTT18=
EXTT19=
PLAYORDER=
